<?xml version="1.0" encoding="UTF-8" standalone="no"?>
<!-- Created with Inkscape (http://www.inkscape.org/) -->

<svg
   width="64"
   height="64"
   viewBox="0 0 16.933333 16.933333"
   version="1.1"
   id="svg1"
   inkscape:version="1.3.2 (091e20ef0f, 2023-11-25, custom)"
   sodipodi:docname="drawing-1.svg"
   xmlns:inkscape="http://www.inkscape.org/namespaces/inkscape"
   xmlns:sodipodi="http://sodipodi.sourceforge.net/DTD/sodipodi-0.dtd"
   xmlns="http://www.w3.org/2000/svg"
   xmlns:svg="http://www.w3.org/2000/svg">
  <sodipodi:namedview
     id="namedview1"
     pagecolor="#ffffff"
     bordercolor="#000000"
     borderopacity="0.25"
     inkscape:showpageshadow="2"
     inkscape:pageopacity="0.0"
     inkscape:pagecheckerboard="0"
     inkscape:deskcolor="#d1d1d1"
     inkscape:document-units="mm"
     showguides="false"
     inkscape:zoom="8"
     inkscape:cx="20"
     inkscape:cy="24.625"
     inkscape:window-width="1916"
     inkscape:window-height="1036"
     inkscape:window-x="1366"
     inkscape:window-y="20"
     inkscape:window-maximized="1"
     inkscape:current-layer="layer1" />
  <defs
     id="defs1" />
  <g
     inkscape:label="Layer 1"
     inkscape:groupmode="layer"
     id="layer1">
    <path
       id="path1-3-8-0"
       style="fill:#333333;stroke:none;stroke-width:2.83628;stroke-linecap:round;stroke-linejoin:round"
       d="M 0.072082193 -16.070364 L -5.1683713 -13.044639 L -10.407717 -10.020022 L -15.64817 -6.9942972 L -15.64817 -0.94395538 L -15.64817 5.1074943 L -15.64817 11.157836 L -10.407717 14.183561 L -5.1683713 17.208178 L 0.072082193 20.233903 L 5.3125357 17.208178 L 10.551881 14.183561 L 15.792335 11.157836 L 15.792335 5.1074943 L 15.792335 -0.94395538 L 15.792335 -6.9942972 L 10.551881 -10.020022 L 5.3125357 -13.044639 L 0.072082193 -16.070364 z "
       transform="matrix(0.46642819,0,0,0.46642819,8.4330455,7.4956707)" />
    <path
       id="path3-5-6"
       style="fill:#4d4d4d;stroke:none;stroke-width:1.32292;stroke-linecap:round;stroke-linejoin:round"
       d="M 1.1342967,9.87795 V 12.7 l 2.444296,1.411283 2.443778,1.410767 2.444295,1.411283 v -2.82205 L 6.0223707,12.7 3.5785927,11.288717 Z" />
    <path
       id="path4-6-8-1"
       style="fill:#333333;stroke:none;stroke-width:1.32292;stroke-linecap:round;stroke-linejoin:round"
       d="M 15.799036,9.87795 13.35474,11.288717 10.910962,12.7 8.4666657,14.111283 v 2.82205 L 10.910962,15.52205 13.35474,14.111283 15.799036,12.7 Z" />
    <path
       style="fill:#666666;stroke:none;stroke-width:1.32292;stroke-linecap:round;stroke-linejoin:round"
       d="M 8.4666167,11.288889 6.0225017,12.7 8.4666167,14.111111 10.910734,12.7 Z"
       id="path5-2-8-5" />
    <path
       id="path5-6-06"
       style="fill:#00aa00;stroke:none;stroke-width:1.32292;stroke-linecap:round;stroke-linejoin:round"
       d="M 8.4666657,1.6887078e-8 6.0223707,1.4112834 3.5785927,2.82205 1.1342967,4.2333333 3.5785927,5.6446167 6.0223707,4.2333333 8.4666657,5.6446167 10.910962,4.2333333 13.35474,5.6446167 15.799036,4.2333333 13.35474,2.82205 10.910962,1.4112834 Z" />
    <path
       id="path3-9"
       style="fill:#008000;stroke:none;stroke-width:1.32292;stroke-linecap:round;stroke-linejoin:round"
       d="m 1.1342967,4.2333333 v 2.82205 l 2.444296,1.4112834 v -2.82205 z m 4.888074,0 v 2.82205 l 2.444295,1.4112834 v -2.82205 z m 4.8885913,0 v 2.82205 l 2.443778,1.4112834 v -2.82205 z" />
    <path
       id="path4-3"
       style="fill:#005500;stroke:none;stroke-width:1.32292;stroke-linecap:round;stroke-linejoin:round"
       d="m 6.0223707,4.2333333 -2.443778,1.4112834 v 2.82205 l 2.443778,-1.4112834 z m 4.8885913,0 -2.4442963,1.4112834 v 2.82205 L 10.910962,7.0553833 Z m 4.888074,0 -2.444296,1.4112834 v 2.82205 l 2.444296,-1.4112834 z" />
    <path
       id="path4-7"
       style="fill:#552200;stroke:none;stroke-width:1.32292;stroke-linecap:round;stroke-linejoin:round"
       d="M 15.799036,7.0553833 13.35474,8.4666667 10.910962,9.87795 V 12.7 L 13.35474,11.288717 15.799036,9.87795 Z M 8.4666657,8.4666667 6.0223707,9.87795 V 12.7 l 2.444295,-1.411283 z" />
    <path
       id="path5-2"
       style="fill:#aa4400;stroke:none;stroke-width:1.32292;stroke-linecap:round;stroke-linejoin:round"
       d="M 6.0223707,7.0553833 3.5785927,8.4666667 6.0223707,9.87795 8.4666657,8.4666667 Z M 8.4666657,8.4666667 10.910962,9.87795 13.35474,8.4666667 10.910962,7.0553833 Z" />
    <path
       id="path3-5"
       style="fill:#803300;stroke:none;stroke-width:1.32292;stroke-linecap:round;stroke-linejoin:round"
       d="M 1.1342967,7.0553833 V 9.87795 L 3.5785927,11.288717 6.0223707,12.7 V 9.87795 L 3.5785927,8.4666667 Z m 7.332369,1.4112834 V 11.288717 L 10.910962,12.7 V 9.87795 Z" />
  </g>
</svg>
